<?xml version="1.0" standalone="no"?><!DOCTYPE svg PUBLIC "-//W3C//DTD SVG 1.1//EN" "http://www.w3.org/Graphics/SVG/1.1/DTD/svg11.dtd"><svg t="1600933341681" class="icon" viewBox="0 0 1024 1024" version="1.1" xmlns="http://www.w3.org/2000/svg" p-id="1167" xmlns:xlink="http://www.w3.org/1999/xlink" width="200" height="200"><defs><style type="text/css"></style></defs><path d="M512 0c282.752 0 512 229.248 512 512s-229.248 512-512 512S0 794.752 0 512 229.248 0 512 0z m0 85.333333C276.352 85.333333 85.333333 276.352 85.333333 512s191.018667 426.666667 426.666667 426.666667 426.666667-191.018667 426.666667-426.666667S747.648 85.333333 512 85.333333z m-0.042667 170.666667a42.666667 42.666667 0 0 1 42.666667 42.666667v170.666666h170.666667a42.666667 42.666667 0 0 1 0 85.333334h-170.666667v170.666666a42.666667 42.666667 0 0 1-85.333333 0v-170.666666h-170.666667a42.666667 42.666667 0 0 1 0-85.333334h170.666667V298.666667a42.666667 42.666667 0 0 1 42.666666-42.666667z" fill="#1296db" p-id="1168"></path></svg>