<?xml version="1.0" standalone="no"?><!DOCTYPE svg PUBLIC "-//W3C//DTD SVG 1.1//EN" "http://www.w3.org/Graphics/SVG/1.1/DTD/svg11.dtd"><svg t="1600937004415" class="icon" viewBox="0 0 1024 1024" version="1.1" xmlns="http://www.w3.org/2000/svg" p-id="2044" xmlns:xlink="http://www.w3.org/1999/xlink" width="200" height="200"><defs><style type="text/css"></style></defs><path d="M511.3 98.2c-229.2 0-415 185.8-415 415s185.8 415.1 415.1 415.1 415.1-185.8 415.1-415.1c-0.1-229.2-185.9-415-415.2-415z m185.7 415c0 18.3-14.8 33.2-33.2 33.2H544.5v119.3c0 18.3-14.8 33.2-33.2 33.2-18.3 0-33.2-14.8-33.2-33.2V546.4H358.9c-18.3 0-33.2-14.8-33.2-33.2 0-18.3 14.8-33.2 33.2-33.2h119.3V360.8c0-18.3 14.8-33.2 33.2-33.2 18.3 0 33.2 14.8 33.2 33.2v119.3h119.3c18.2 0 33.1 14.8 33.1 33.1z" fill="#409eff" p-id="2045"></path></svg>