<?xml version="1.0" standalone="no"?><!DOCTYPE svg PUBLIC "-//W3C//DTD SVG 1.1//EN" "http://www.w3.org/Graphics/SVG/1.1/DTD/svg11.dtd"><svg t="1600044246730" class="icon" viewBox="0 0 1024 1024" version="1.1" xmlns="http://www.w3.org/2000/svg" p-id="3593" xmlns:xlink="http://www.w3.org/1999/xlink" width="200" height="200"><defs><style type="text/css"></style></defs><path d="M512 102.4a409.6 409.6 0 1 0 409.6 409.6 409.6 409.6 0 0 0-409.6-409.6z m181.248 518.144a51.2 51.2 0 0 1-72.704 72.704L512 584.192l-108.544 109.056a51.2 51.2 0 0 1-72.704-72.704L439.808 512 330.752 403.456a51.2 51.2 0 0 1 72.704-72.704L512 439.808l108.544-109.056a51.2 51.2 0 0 1 72.704 72.704L584.192 512z" fill="#d81e06" p-id="3594"></path></svg>