<?xml version="1.0" standalone="no"?><!DOCTYPE svg PUBLIC "-//W3C//DTD SVG 1.1//EN" "http://www.w3.org/Graphics/SVG/1.1/DTD/svg11.dtd"><svg t="1600044437368" class="icon" viewBox="0 0 1024 1024" version="1.1" xmlns="http://www.w3.org/2000/svg" p-id="6488" xmlns:xlink="http://www.w3.org/1999/xlink" width="200" height="200"><defs><style type="text/css"></style></defs><path d="M905.1 505.7c-4.3-218-184.6-391.2-402.6-386.9-218 4.3-391.2 184.6-386.9 402.6s184.6 391.2 402.6 386.9 391.2-184.6 386.9-402.6z m-164.6-84.6l-215 215c-4.2 4.2-9.7 6.2-15.2 6.2s-11-2-15.2-6.2l-215-215c-8.3-8.3-8.3-21.8 0-30 8.3-8.3 21.8-8.3 30 0l200.2 200.2L710.5 391c8.3-8.3 21.8-8.3 30 0 8.3 8.3 8.3 21.8 0 30.1z" fill="#0e932e" p-id="6489"></path></svg>