<?xml version="1.0" standalone="no"?><!DOCTYPE svg PUBLIC "-//W3C//DTD SVG 1.1//EN" "http://www.w3.org/Graphics/SVG/1.1/DTD/svg11.dtd"><svg t="1601274087948" class="icon" viewBox="0 0 1024 1024" version="1.1" xmlns="http://www.w3.org/2000/svg" p-id="28778" xmlns:xlink="http://www.w3.org/1999/xlink" width="200" height="200"><defs><style type="text/css"></style></defs><path d="M792 513.5V853H172V233h340.5v-60H172c-33.1 0-60 26.9-60 60v620c0 33.1 26.9 60 60 60h620c33.1 0 60-26.9 60-60V513.5h-60z" fill="#1296db" p-id="28779"></path><path d="M307.9 721.1c-11.7-11.7-8.7-33.7 6.7-49.1l501.9-501.9c15.4-15.4 37.4-18.4 49.1-6.7 11.7 11.7 8.7 33.7-6.7 49.1L357 714.5c-15.4 15.3-37.4 18.3-49.1 6.6z" fill="#1296db" p-id="28780"></path><path d="M882 114H642c-16.6 0-30 13.4-30 30s13.4 30 30 30h210v210c0 16.6 13.4 30 30 30s30-13.4 30-30V144c0-16.6-13.4-30-30-30z" fill="#1296db" p-id="28781"></path><path d="M512 203m-30 0a30 30 0 1 0 60 0 30 30 0 1 0-60 0Z" fill="#1296db" p-id="28782"></path><path d="M822 515m-30 0a30 30 0 1 0 60 0 30 30 0 1 0-60 0Z" fill="#1296db" p-id="28783"></path></svg>